<svg width="118" height="71" viewBox="0 0 118 71" fill="none" xmlns="http://www.w3.org/2000/svg">
<path d="M25.8142 9.80934C30.7811 7.7127 36.5746 5.31909 43.8454 5.02565C52.3682 4.6817 61.1953 3.62469 69.3968 3.62469C72.9793 4.13955 76.2259 4.76444 81.9302 6.99801C91.6337 10.7975 98.4508 13.6133 99.9157 14.9628C102.063 16.9411 109.204 22.1645 112.909 33.4599C114.264 37.5912 115.258 40.4863 114.813 43.7648C114.028 49.5547 113.32 54.4563 112.204 56.4607C110.451 59.6091 107.827 64.5915 101.943 66.4128C97.5444 67.7744 89.5102 70.2492 81.8094 67.8469C77.4619 66.4907 73.1021 64.2516 71.5041 61.3742C69.9817 58.6332 72.4764 51.1883 66.1091 45.9585C61.9087 42.5086 56.5222 40.4608 53.3996 41.381C52.193 41.7366 50.5789 42.4181 48.8295 44.2028C43.4832 49.6568 35.7681 56.9036 32.0973 58.9536C29.7411 60.2695 26.3702 61.9347 22.799 61.3972C15.7143 60.3309 10.4396 59.1486 8.88635 57.5082C6.56271 55.0542 5.15836 53.4789 4.56453 51.3946C3.66233 48.2279 2.20146 44.7345 3.12889 40.327C4.44496 34.0725 6.72577 25.7659 8.96018 23.2942C13.4518 18.3255 20.3353 12.1221 25.8142 9.80934Z" fill="#4B4B4B"/>
<path d="M25.861 9.07033C30.828 6.97368 36.6215 4.58007 43.8923 4.28664C52.415 3.94268 61.2422 2.88568 69.4436 2.88568C73.0261 3.40053 76.2727 4.02543 81.9771 6.259C91.6806 10.0585 98.4976 12.8742 99.9626 14.2238C102.11 16.2021 109.251 21.4255 112.956 32.7209C114.311 36.8521 115.305 39.7473 114.86 43.0258C114.075 48.8157 113.367 53.7173 112.251 55.7216C110.498 58.87 107.873 63.8525 101.99 65.6738C97.5913 67.0354 89.5571 69.5101 81.8562 67.1079C77.5088 65.7517 73.149 63.5126 71.5509 60.6352C70.0286 57.8941 72.5233 50.4493 66.1559 45.2195C61.9556 41.7696 56.5691 39.7217 53.4464 40.642C52.2398 40.9976 50.6257 41.6791 48.8764 43.4637C43.5301 48.9178 35.8149 56.1646 32.1441 58.2146C29.7879 59.5305 26.4171 61.1957 22.8458 60.6582C15.7611 59.5919 10.4864 58.4096 8.93322 56.7692C6.60959 54.3151 5.20523 52.7399 4.61141 50.6556C3.7092 47.4889 2.24834 43.9955 3.17577 39.588C4.49183 33.3335 6.77265 25.0269 9.00705 22.5551C13.4987 17.5865 20.3821 11.3831 25.861 9.07033Z" fill="#4B4B4B" stroke="black" stroke-width="5.7714"/>
<path d="M21.1657 41.2382C21.1272 41.9611 21.3147 42.6956 21.7459 43.2909C22.1767 43.8863 22.8081 44.2923 23.5146 44.4221C24.2211 44.5519 24.9556 44.397 25.5699 43.9938C26.1847 43.5906 26.6211 42.9708 26.8421 42.2815C27.2959 40.9789 27.9155 39.6398 28.6109 38.3788C31.1385 33.8166 34.6646 29.9683 38.8034 27.1081C44.0526 23.4547 50.6138 21.853 57.3874 21.8702C69.5243 21.6299 81.1952 26.1046 84.5231 37.0504C85.4521 39.7072 86.2044 42.5464 86.8913 45.5158C87.2367 47.023 87.5636 48.5307 87.8853 50.111C88.0227 50.8049 88.3487 51.4705 88.8753 51.9612C89.4012 52.4519 90.0754 52.7275 90.771 52.7275C91.4665 52.7275 92.1407 52.4519 92.6666 51.9612C93.1932 51.4705 93.5192 50.8049 93.6567 50.111C93.9774 48.381 94.1806 46.6611 94.2407 44.8765C94.3629 41.3646 93.9238 37.7097 92.6949 34.1926C88.2933 18.9678 70.514 12.58 57.3874 13.2131C49.356 13.1849 40.872 15.1186 33.8792 19.9879C28.3503 23.7964 24.1923 29.46 22.2354 35.7584C21.6927 37.5151 21.3031 39.3476 21.1657 41.2382Z" fill="black"/>
</svg>
