<svg width="274" height="109" viewBox="0 0 274 109" fill="none" xmlns="http://www.w3.org/2000/svg">
<path d="M132.5 1.99988C111.7 1.99988 35.5 73.3332 0 109H274C235.5 73.3332 153.3 1.99988 132.5 1.99988Z" fill="#B9B593"/>
<path d="M0 109C4.20488 104.975 8.46398 101.015 12.7659 97.0489C18.6341 91.6401 24.5353 86.2667 30.384 80.8411C62.5134 52.7449 94.2304 18.5141 132.5 3.99974C132.771 3.99981 133.067 4.01545 133.387 4.04841C171.701 19.0285 204.184 50.6104 237.135 77.3086C245.002 84.0191 252.974 90.7536 260.821 97.5007C265.265 101.324 269.657 105.141 274 109C269.82 104.964 265.62 100.935 261.364 96.8992C253.852 89.7749 246.197 82.6648 238.447 75.7992C205.495 48.325 175.834 16.3505 133.797 0.069458C133.355 0.0240057 132.923 -5.69243e-05 132.5 1.34632e-05C89.4672 15.9987 61.2866 50.5255 29.0106 79.3872C23.2535 84.9262 17.6372 90.6114 12.0859 96.3526C8.01571 100.562 4.00522 104.777 0 109Z" fill="#A19F90"/>
<path d="M159 34.9999C158.947 36.1739 158.924 37.3598 158.957 38.5539C159.002 40.1828 159.154 41.823 159.552 43.4198C160.514 46.8961 161.557 50.7348 165.228 53.3229C168.601 55.3863 172.036 53.3988 174.237 52.2597C176.571 50.9847 178.739 49.6058 180.64 49.2825C182.306 48.9756 183.66 49.6344 185.049 51.1949C189.36 56.0184 194.312 59.866 199.262 63.6932C200.919 64.9605 202.691 66.0899 204.479 67.1811C205.48 67.7903 206.505 68.4035 207.5 68.9999C206.649 68.2116 205.802 67.3733 204.981 66.5448C203.512 65.064 202.065 63.5653 200.55 62.1632C196.033 57.949 191.637 53.5039 187.951 48.8049C186.45 46.644 183.068 44.6292 179.967 45.3395C173.794 46.6835 169.918 52.1968 166.772 50.6769C164.301 49.3993 162.59 46.0387 161.469 42.8506C160.959 41.3858 160.408 39.9079 159.916 38.3904C159.557 37.2787 159.228 36.1526 159 34.9999Z" fill="#A19F90"/>
<path d="M85.3789 68.9999C84.6214 69.2178 83.8379 69.4305 83.0678 69.6634C82.012 69.9839 80.9692 70.3492 80.0056 70.8642C77.2069 72.5334 74.2457 73.5776 71.9887 77.3155C71.7484 77.85 71.5686 78.6259 71.7982 79.4479C72.0277 80.2694 72.5387 80.8136 72.9511 81.1647C73.8137 81.8646 74.528 82.1418 75.2115 82.4433C76.5298 82.9891 77.8655 83.4537 78.3777 83.8657C78.5143 83.9696 78.5034 84.0061 78.4664 83.9037C78.428 83.8 78.4681 83.701 78.4528 83.8097C78.4265 84.0239 78.1178 84.585 77.712 85.0962C75.0081 88.5518 72.9906 92.2936 70.9847 96.0213C70.3244 97.2589 69.8076 98.5859 69.3216 99.9169C69.0496 100.664 68.7809 101.422 68.5124 102.158C68.9911 101.538 69.5075 100.925 70.0216 100.326C70.9379 99.2564 71.8659 98.1999 72.6798 97.0828C75.1412 93.7235 77.8033 90.476 80.5578 87.5644C81.1808 86.8715 81.8255 86.1677 82.2451 84.8701C82.4436 84.2333 82.51 83.3046 82.1853 82.4747C81.8698 81.6413 81.3059 81.0746 80.8279 80.704C79.1398 79.5033 77.769 79.2966 76.5674 78.8644C75.9841 78.6763 75.4318 78.4547 75.2056 78.3154C75.0906 78.25 75.1315 78.2651 75.1637 78.4296C75.1932 78.5964 75.1159 78.6851 75.1357 78.5701C75.8343 76.6468 78.6659 74.322 81.064 72.5612C81.9169 71.9439 82.7184 71.2302 83.538 70.5156C84.1349 69.9946 84.7463 69.4702 85.3789 68.9999Z" fill="#A19F90"/>
</svg>
